<mxfile host="app.diagrams.net" modified="2023-03-24T05:17:25.285Z" agent="5.0 (Macintosh; Intel Mac OS X 10_15_7) AppleWebKit/537.36 (KHTML, like Gecko) Chrome/111.0.0.0 Safari/537.36" etag="tIBvH0ZrBVXVNh1FM8pn" version="20.4.1" type="github">
  <diagram name="Page-1" id="74e2e168-ea6b-b213-b513-2b3c1d86103e">
    <mxGraphModel dx="1995" dy="619" grid="1" gridSize="10" guides="1" tooltips="1" connect="1" arrows="1" fold="1" page="1" pageScale="1" pageWidth="1100" pageHeight="850" background="none" math="0" shadow="0">
      <root>
        <mxCell id="0" />
        <mxCell id="1" parent="0" />
        <mxCell id="qVj28lsYevXOe8eaYTV5-10" value="" style="edgeStyle=orthogonalEdgeStyle;rounded=0;orthogonalLoop=1;jettySize=auto;html=1;" edge="1" parent="1" source="qVj28lsYevXOe8eaYTV5-1" target="qVj28lsYevXOe8eaYTV5-9">
          <mxGeometry relative="1" as="geometry" />
        </mxCell>
        <mxCell id="qVj28lsYevXOe8eaYTV5-1" value="Platfit 앱을 실행" style="ellipse;whiteSpace=wrap;html=1;" vertex="1" parent="1">
          <mxGeometry x="-830" y="340" width="120" height="50" as="geometry" />
        </mxCell>
        <mxCell id="qVj28lsYevXOe8eaYTV5-12" value="" style="edgeStyle=orthogonalEdgeStyle;rounded=0;orthogonalLoop=1;jettySize=auto;html=1;" edge="1" parent="1" source="qVj28lsYevXOe8eaYTV5-9" target="qVj28lsYevXOe8eaYTV5-11">
          <mxGeometry relative="1" as="geometry" />
        </mxCell>
        <mxCell id="qVj28lsYevXOe8eaYTV5-21" value="" style="edgeStyle=orthogonalEdgeStyle;rounded=0;orthogonalLoop=1;jettySize=auto;html=1;" edge="1" parent="1" source="qVj28lsYevXOe8eaYTV5-9" target="qVj28lsYevXOe8eaYTV5-20">
          <mxGeometry relative="1" as="geometry" />
        </mxCell>
        <mxCell id="qVj28lsYevXOe8eaYTV5-9" value="처음 실행인가?" style="rhombus;whiteSpace=wrap;html=1;" vertex="1" parent="1">
          <mxGeometry x="-610" y="325" width="80" height="80" as="geometry" />
        </mxCell>
        <mxCell id="qVj28lsYevXOe8eaYTV5-14" value="" style="edgeStyle=orthogonalEdgeStyle;rounded=0;orthogonalLoop=1;jettySize=auto;html=1;" edge="1" parent="1" source="qVj28lsYevXOe8eaYTV5-11" target="qVj28lsYevXOe8eaYTV5-13">
          <mxGeometry relative="1" as="geometry" />
        </mxCell>
        <mxCell id="qVj28lsYevXOe8eaYTV5-11" value="운동 경력 선택" style="ellipse;whiteSpace=wrap;html=1;" vertex="1" parent="1">
          <mxGeometry x="-630" y="495" width="120" height="60" as="geometry" />
        </mxCell>
        <mxCell id="qVj28lsYevXOe8eaYTV5-16" value="" style="edgeStyle=orthogonalEdgeStyle;rounded=0;orthogonalLoop=1;jettySize=auto;html=1;" edge="1" parent="1" source="qVj28lsYevXOe8eaYTV5-13" target="qVj28lsYevXOe8eaYTV5-15">
          <mxGeometry relative="1" as="geometry" />
        </mxCell>
        <mxCell id="qVj28lsYevXOe8eaYTV5-13" value="원하는 운동 횟수 선택" style="ellipse;whiteSpace=wrap;html=1;" vertex="1" parent="1">
          <mxGeometry x="-630" y="635" width="120" height="60" as="geometry" />
        </mxCell>
        <mxCell id="qVj28lsYevXOe8eaYTV5-18" value="" style="edgeStyle=orthogonalEdgeStyle;rounded=0;orthogonalLoop=1;jettySize=auto;html=1;" edge="1" parent="1" source="qVj28lsYevXOe8eaYTV5-15" target="qVj28lsYevXOe8eaYTV5-17">
          <mxGeometry relative="1" as="geometry" />
        </mxCell>
        <mxCell id="qVj28lsYevXOe8eaYTV5-15" value="헬스장 선택" style="ellipse;whiteSpace=wrap;html=1;" vertex="1" parent="1">
          <mxGeometry x="-630" y="775" width="120" height="60" as="geometry" />
        </mxCell>
        <mxCell id="qVj28lsYevXOe8eaYTV5-23" style="edgeStyle=orthogonalEdgeStyle;rounded=0;orthogonalLoop=1;jettySize=auto;html=1;" edge="1" parent="1" source="qVj28lsYevXOe8eaYTV5-17">
          <mxGeometry relative="1" as="geometry">
            <mxPoint x="-410" y="400" as="targetPoint" />
          </mxGeometry>
        </mxCell>
        <mxCell id="qVj28lsYevXOe8eaYTV5-17" value="운동 목표 선택" style="ellipse;whiteSpace=wrap;html=1;" vertex="1" parent="1">
          <mxGeometry x="-630" y="920" width="120" height="60" as="geometry" />
        </mxCell>
        <mxCell id="qVj28lsYevXOe8eaYTV5-19" value="Yes" style="text;html=1;align=center;verticalAlign=middle;resizable=0;points=[];autosize=1;strokeColor=none;fillColor=none;" vertex="1" parent="1">
          <mxGeometry x="-610" y="405" width="40" height="30" as="geometry" />
        </mxCell>
        <mxCell id="qVj28lsYevXOe8eaYTV5-25" value="" style="edgeStyle=orthogonalEdgeStyle;rounded=0;orthogonalLoop=1;jettySize=auto;html=1;" edge="1" parent="1" source="qVj28lsYevXOe8eaYTV5-20" target="qVj28lsYevXOe8eaYTV5-24">
          <mxGeometry relative="1" as="geometry" />
        </mxCell>
        <mxCell id="qVj28lsYevXOe8eaYTV5-20" value="운동 메뉴" style="whiteSpace=wrap;html=1;" vertex="1" parent="1">
          <mxGeometry x="-470" y="335" width="120" height="60" as="geometry" />
        </mxCell>
        <mxCell id="qVj28lsYevXOe8eaYTV5-22" value="No" style="text;html=1;align=center;verticalAlign=middle;resizable=0;points=[];autosize=1;strokeColor=none;fillColor=none;" vertex="1" parent="1">
          <mxGeometry x="-540" y="365" width="40" height="30" as="geometry" />
        </mxCell>
        <mxCell id="qVj28lsYevXOe8eaYTV5-27" value="" style="edgeStyle=orthogonalEdgeStyle;rounded=0;orthogonalLoop=1;jettySize=auto;html=1;fontSize=9;" edge="1" parent="1" source="qVj28lsYevXOe8eaYTV5-24" target="qVj28lsYevXOe8eaYTV5-26">
          <mxGeometry relative="1" as="geometry" />
        </mxCell>
        <mxCell id="qVj28lsYevXOe8eaYTV5-30" value="" style="edgeStyle=orthogonalEdgeStyle;rounded=0;orthogonalLoop=1;jettySize=auto;html=1;fontSize=9;" edge="1" parent="1" source="qVj28lsYevXOe8eaYTV5-24" target="qVj28lsYevXOe8eaYTV5-29">
          <mxGeometry relative="1" as="geometry" />
        </mxCell>
        <mxCell id="qVj28lsYevXOe8eaYTV5-24" value="&lt;font style=&quot;font-size: 9px;&quot;&gt;추천 운동이 마음에 드는가?&lt;/font&gt;" style="rhombus;whiteSpace=wrap;html=1;" vertex="1" parent="1">
          <mxGeometry x="-250" y="325" width="80" height="80" as="geometry" />
        </mxCell>
        <mxCell id="qVj28lsYevXOe8eaYTV5-26" value="추천 운동 시작" style="whiteSpace=wrap;html=1;" vertex="1" parent="1">
          <mxGeometry x="-110" y="335" width="120" height="60" as="geometry" />
        </mxCell>
        <mxCell id="qVj28lsYevXOe8eaYTV5-28" value="Yes" style="text;html=1;align=center;verticalAlign=middle;resizable=0;points=[];autosize=1;strokeColor=none;fillColor=none;fontSize=9;" vertex="1" parent="1">
          <mxGeometry x="-180" y="365" width="40" height="30" as="geometry" />
        </mxCell>
        <mxCell id="qVj28lsYevXOe8eaYTV5-29" value="루틴 수정" style="whiteSpace=wrap;html=1;" vertex="1" parent="1">
          <mxGeometry x="-270" y="495" width="120" height="60" as="geometry" />
        </mxCell>
      </root>
    </mxGraphModel>
  </diagram>
</mxfile>
